<?xml version="1.0" encoding="utf-8"?>
<!-- Generator: Adobe Illustrator 19.1.0, SVG Export Plug-In . SVG Version: 6.00 Build 0)  -->
<!DOCTYPE svg PUBLIC "-//W3C//DTD SVG 1.1//EN" "http://www.w3.org/Graphics/SVG/1.1/DTD/svg11.dtd" [
	<!ENTITY ns_extend "http://ns.adobe.com/Extensibility/1.0/">
	<!ENTITY ns_ai "http://ns.adobe.com/AdobeIllustrator/10.0/">
	<!ENTITY ns_graphs "http://ns.adobe.com/Graphs/1.0/">
	<!ENTITY ns_vars "http://ns.adobe.com/Variables/1.0/">
	<!ENTITY ns_imrep "http://ns.adobe.com/ImageReplacement/1.0/">
	<!ENTITY ns_sfw "http://ns.adobe.com/SaveForWeb/1.0/">
	<!ENTITY ns_custom "http://ns.adobe.com/GenericCustomNamespace/1.0/">
	<!ENTITY ns_adobe_xpath "http://ns.adobe.com/XPath/1.0/">
]>
<svg version="1.1" id="Layer_1" xmlns:x="&ns_extend;" xmlns:i="&ns_ai;" xmlns:graph="&ns_graphs;"
	 xmlns="http://www.w3.org/2000/svg" xmlns:xlink="http://www.w3.org/1999/xlink" x="0px" y="0px" width="50px" height="52px"
	 viewBox="0 0 50 52" style="enable-background:new 0 0 50 52;" xml:space="preserve">
<style type="text/css">
	.st0{fill:#FF825A;}
	.st1{fill:#6EDCD4;}
</style>
<metadata>
	<sfw  xmlns="&ns_sfw;">
		<slices></slices>
		<sliceSourceBounds  height="52" width="50" y="141" x="684.6" bottomLeftOrigin="true"></sliceSourceBounds>
	</sfw>
</metadata>
<g>
	<path class="st0" d="M16,34.1L7.2,33c-0.5-0.1-0.9-0.5-0.9-1V1c0-0.5,0.4-1,1-1h8.8c0.5,0,1,0.4,1,1v16.4h16.1V1c0-0.5,0.4-1,1-1
		h8.8c0.5,0,1,0.4,1,1v35.6c0,0.6-0.5,1-1.1,1L34,36.4c-0.5-0.1-0.9-0.5-0.9-1v-7.5H17.1v5.3C17.1,33.7,16.6,34.2,16,34.1z"/>
	<g>
		<path class="st1" d="M50,51v-7.4c0-0.5-0.4-0.9-0.9-1l-48-6C0.5,36.5,0,37,0,37.6V45c0,0.5,0.4,0.9,0.9,1l48,6
			C49.5,52.1,50,51.6,50,51z"/>
	</g>
</g>
</svg>
