<?xml version="1.0" encoding="utf-8"?>
<!-- Generator: Adobe Illustrator 19.2.0, SVG Export Plug-In . SVG Version: 6.00 Build 0)  -->
<svg version="1.1" id="Calque_1" xmlns="http://www.w3.org/2000/svg" xmlns:xlink="http://www.w3.org/1999/xlink" x="0px" y="0px"
	 viewBox="0 0 262 262" style="enable-background:new 0 0 262 262;" xml:space="preserve">
<style type="text/css">
	.st0{fill:none;stroke:#FFFFFF;stroke-width:4;stroke-miterlimit:10;}
	.st1{enable-background:new    ;}
	.st2{fill:#FFFFFF;}
</style>
<rect x="2" y="2" class="st0" width="258" height="258"/>
<line class="st0" x1="2" y1="2" x2="260" y2="260"/>
<g class="st1">
	<path class="st2" d="M97.9,86c0,13,1.7,15.2,12.5,15.2v3.8H79.7v-3.8C90.5,101.2,92,99,92,86V46c0-13-1.6-15.2-12.4-15.2V27h26
		l25.1,56.3L155.1,27h25.4v3.8c-11,0-12.5,2.2-12.5,15.2v40c0,13,1.6,15.2,12.5,15.2v3.8h-40.6v-3.8c10.8,0,12.5-2.2,12.5-15.2V48.4
		l-25.5,58.8H124L97.9,48.6V86z"/>
</g>
<g class="st1">
	<path class="st2" d="M88.9,165c0-22.6,19.5-41.2,43.3-41.2c23.9,0,43.4,18.6,43.4,41.2c0,21.8-17.5,38.6-39,41
		c-5.1,0.5-13,3.6-17.7,7.5c24.1-5.8,35.4,11.6,50.8,11.6c10.5,0,17.2-4,21.5-11l3.1,1.3c-3.1,9.1-9.4,24.4-27,24.4
		c-21.5,0-29.8-23.3-42.4-23.3c-12.5,0-11.1,8.1-15.6,8.7c-2.5,0.4-4.4-1.4-4.4-4.2c0-3.9,8.6-11.8,20.3-15.3
		C103.9,202.1,88.9,185,88.9,165z M106.3,165c0,15.7,7.5,35,25.9,35c18.5,0,25.9-19.2,25.9-35c0-15.7-7.4-35-25.9-35
		C113.8,130,106.3,149.3,106.3,165z"/>
</g>
</svg>
